<?xml version="1.0" encoding="UTF-8"?>
<svg width="20" height="20" viewBox="0 0 20 20" fill="none" xmlns="http://www.w3.org/2000/svg">
  <path d="M10 1.66675C5.4 1.66675 1.66667 5.40008 1.66667 10.0001C1.66667 14.6001 5.4 18.3334 10 18.3334C14.6 18.3334 18.3333 14.6001 18.3333 10.0001C18.3333 5.40008 14.6 1.66675 10 1.66675ZM15.5833 5.00008C16.5833 6.25008 17.1667 7.83341 17.1667 9.50008C16.9167 9.41675 14.5 8.75008 12.0833 9.08341C12 9.00008 11.9167 8.83341 11.8333 8.75008C11.6667 8.41675 11.5 8.08341 11.3333 7.75008C14 6.58341 15.4167 5.16675 15.5833 5.00008ZM10 2.83341C11.8333 2.83341 13.5 3.50008 14.8333 4.58341C14.6667 4.75008 13.4167 6.08341 10.8333 7.08341C9.5 4.58341 8.08333 2.58341 7.83333 2.25008C8.5 2.91675 9.25 2.83341 10 2.83341ZM6.5 2.75008C6.75 3.08341 8.16667 5.08341 9.5 7.50008C5.75 8.58341 2.5 8.58341 2.16667 8.58341C2.75 5.91675 4.33333 3.75008 6.5 2.75008ZM2.83333 10.0001V9.75008C3.16667 9.75008 7 9.75008 11.0833 8.50008C11.3333 8.91675 11.5 9.33341 11.6667 9.75008C11.5833 9.75008 11.4167 9.83341 11.3333 9.83341C7.08333 11.0834 4.66667 14.5834 4.5 14.8334C3.5 13.5001 2.83333 11.8334 2.83333 10.0001ZM10 17.1667C8.33333 17.1667 6.75 16.5834 5.5 15.5834C5.66667 15.3334 7.41667 12.4167 12.0833 10.9167C12.0833 10.9167 12.1667 10.9167 12.1667 10.8334C13.4167 13.8334 13.8333 16.3334 14 17.0834C12.8333 16.8334 11.4167 17.1667 10 17.1667ZM15 16.2501C14.9167 15.7501 14.5 13.3334 13.3333 10.4167C15.5833 10.0001 17.5833 10.7501 17.8333 10.9167C17.4167 13.1667 16.4167 15.0834 15 16.2501Z" fill="white"/>
</svg> 