<?xml version="1.0" encoding="UTF-8"?>
<svg width="20" height="20" viewBox="0 0 20 20" fill="none" xmlns="http://www.w3.org/2000/svg">
  <path d="M10 1.66675C12.0833 1.66675 12.4167 1.66675 13.25 1.75008C15.8333 1.91675 17.0833 3.25008 17.25 5.75008C17.3333 6.58341 17.3333 6.83341 17.3333 8.91675C17.3333 11 17.3333 11.2501 17.25 12.0834C17.0833 14.5834 15.8333 15.9167 13.25 16.0834C12.4167 16.1667 12.1667 16.1667 10 16.1667C7.91667 16.1667 7.66667 16.1667 6.83333 16.0834C4.25 15.9167 2.91667 14.5834 2.75 12.0834C2.66667 11.2501 2.66667 11 2.66667 8.91675C2.66667 6.83341 2.66667 6.58341 2.75 5.75008C2.91667 3.25008 4.25 1.91675 6.83333 1.75008C7.66667 1.66675 7.91667 1.66675 10 1.66675ZM10 4.16675C7.75 4.16675 5.91667 6.00008 5.91667 8.25008C5.91667 10.5001 7.75 12.3334 10 12.3334C12.25 12.3334 14.0833 10.5001 14.0833 8.25008C14.0833 6.00008 12.25 4.16675 10 4.16675ZM14.5833 4.08341C14.0833 4.08341 13.6667 4.50008 13.6667 5.00008C13.6667 5.50008 14.0833 5.91675 14.5833 5.91675C15.0833 5.91675 15.5 5.50008 15.5 5.00008C15.5 4.50008 15.0833 4.08341 14.5833 4.08341ZM10 5.83341C11.3333 5.83341 12.4167 6.91675 12.4167 8.25008C12.4167 9.58341 11.3333 10.6667 10 10.6667C8.66667 10.6667 7.58333 9.58341 7.58333 8.25008C7.58333 6.91675 8.66667 5.83341 10 5.83341Z" fill="white"/>
</svg> 