<?xml version="1.0" encoding="UTF-8"?>
<svg width="20" height="20" viewBox="0 0 20 20" fill="none" xmlns="http://www.w3.org/2000/svg">
  <path d="M15.8333 2.5C16.75 2.5 17.5 3.25 17.5 4.16667V15.8333C17.5 16.75 16.75 17.5 15.8333 17.5H4.16667C3.25 17.5 2.5 16.75 2.5 15.8333V4.16667C2.5 3.25 3.25 2.5 4.16667 2.5H15.8333ZM15.4167 15.4167V11.25C15.4167 9.91667 14.3333 8.83333 13 8.83333C12.3333 8.83333 11.5833 9.25 11.25 9.91667V9H9.16667V15.4167H11.25V11.5833C11.25 10.9167 11.75 10.4167 12.4167 10.4167C13.0833 10.4167 13.5833 10.9167 13.5833 11.5833V15.4167H15.4167ZM5.75 7.25C6.5 7.25 7.16667 6.58333 7.16667 5.83333C7.16667 5.08333 6.5 4.41667 5.75 4.41667C5 4.41667 4.33333 5.08333 4.33333 5.83333C4.33333 6.58333 5 7.25 5.75 7.25ZM6.83333 15.4167V9H4.75V15.4167H6.83333Z" fill="white"/>
</svg> 